<svg xmlns="http://www.w3.org/2000/svg" data-name="图层 1" viewBox="0 0 177.84 59.29"><path d="M0 0h177.84v59.29H0z" style="fill:#a4ce4e"/><path d="M138.39 24.66a3.18 3.18 0 0 0-1.28-1.86 7.16 7.16 0 0 0-2.85-1.27 16.74 16.74 0 0 0-4-.43 16.39 16.39 0 0 0-4.12.45 7.24 7.24 0 0 0-2.79 1.29 3.23 3.23 0 0 0-1.24 1.87 22.35 22.35 0 0 0-.19 3.46v2.78a21.1 21.1 0 0 0 .2 3.52 3.28 3.28 0 0 0 1.27 1.82 7.33 7.33 0 0 0 2.84 1.28 17.42 17.42 0 0 0 4 .43 16.72 16.72 0 0 0 4.1-.46 7 7 0 0 0 2.79-1.29 3.21 3.21 0 0 0 1.23-1.87 19.75 19.75 0 0 0 .2-3.47v-2.74a18.84 18.84 0 0 0-.21-3.51m-4.7 5.65a15.81 15.81 0 0 1-.07 1.85 1.82 1.82 0 0 1-.51 1 2.59 2.59 0 0 1-1.14.69 5 5 0 0 1-1.67.25 5.53 5.53 0 0 1-1.63-.23 2.83 2.83 0 0 1-1.16-.68 2.05 2.05 0 0 1-.51-1 13.79 13.79 0 0 1-.08-1.88v-1.49a13.37 13.37 0 0 1 .08-1.85 1.71 1.71 0 0 1 .5-1 2.61 2.61 0 0 1 1.14-.68 5.3 5.3 0 0 1 1.67-.24 5.14 5.14 0 0 1 1.63.23 2.71 2.71 0 0 1 1.17.68 2 2 0 0 1 .52 1 16 16 0 0 1 .07 1.87Zm-58.97-5.65a3.16 3.16 0 0 0-1.28-1.86 7.21 7.21 0 0 0-2.86-1.27 16.74 16.74 0 0 0-4-.43 16.23 16.23 0 0 0-4.12.45 7.36 7.36 0 0 0-2.8 1.29 3.24 3.24 0 0 0-1.22 1.87 20.83 20.83 0 0 0-.2 3.46v2.78a19.76 19.76 0 0 0 .21 3.52 3.24 3.24 0 0 0 1.3 1.82 7.42 7.42 0 0 0 2.86 1.28 17.33 17.33 0 0 0 4 .43 16.52 16.52 0 0 0 4.09-.46 7.08 7.08 0 0 0 2.8-1.29 3.19 3.19 0 0 0 1.24-1.87 21.11 21.11 0 0 0 .19-3.47v-2.74a19.78 19.78 0 0 0-.21-3.51m-4.7 5.63a13 13 0 0 1-.09 1.85 1.74 1.74 0 0 1-.5 1 2.55 2.55 0 0 1-1.13.69 5 5 0 0 1-1.67.25 5.48 5.48 0 0 1-1.63-.23 2.63 2.63 0 0 1-1.14-.68 1.82 1.82 0 0 1-.54-1 16.31 16.31 0 0 1-.07-1.88v-1.47c0-.87 0-1.49.06-1.85a2 2 0 0 1 .52-1 2.53 2.53 0 0 1 1.14-.68 5.84 5.84 0 0 1 3.28 0 2.61 2.61 0 0 1 1.16.68 1.78 1.78 0 0 1 .52 1 13.09 13.09 0 0 1 .09 1.87Zm-14.45-5.63a3.12 3.12 0 0 0-1.25-1.86 7.41 7.41 0 0 0-2.88-1.27 16.92 16.92 0 0 0-4-.43 16.22 16.22 0 0 0-4.1.45 7.17 7.17 0 0 0-2.79 1.29 3.19 3.19 0 0 0-1.24 1.87 18.8 18.8 0 0 0-.2 3.46v2.78a19.76 19.76 0 0 0 .21 3.52 3.24 3.24 0 0 0 1.29 1.82 7.37 7.37 0 0 0 2.83 1.32 17.52 17.52 0 0 0 4 .43 16.69 16.69 0 0 0 4.11-.46 7 7 0 0 0 2.81-1.29 3.17 3.17 0 0 0 1.23-1.87 19.48 19.48 0 0 0 .21-3.47v-2.78a17.56 17.56 0 0 0-.23-3.51m-4.7 5.63c0 .87 0 1.49-.06 1.85a1.76 1.76 0 0 1-.51 1 2.59 2.59 0 0 1-1.14.69 5 5 0 0 1-1.66.25 5.37 5.37 0 0 1-1.62-.23 2.65 2.65 0 0 1-1.16-.68 1.72 1.72 0 0 1-.52-1 13.35 13.35 0 0 1-.09-1.88v-1.47a18.48 18.48 0 0 1 .07-1.85 2 2 0 0 1 .5-1 2.65 2.65 0 0 1 1.14-.68 5.32 5.32 0 0 1 1.68-.24 5 5 0 0 1 1.61.23 2.51 2.51 0 0 1 1.16.68 1.81 1.81 0 0 1 .54 1c0 .36.06 1 .06 1.87Zm90.21 7.49h4.77V28.8l6.16 8.98h4.79V21.41h-4.79v9.06l-6.18-9.06h-4.75v16.37zm-26.75-16.36h5.14v16.37h-5.14zM98.73 37.78h13.06v-4.02h-7.92V21.41h-5.14v16.37zm-21.37 0h4.16V25.3l3.19 12.48h3.76l3.21-12.77v12.77h4.16V21.41h-7.23l-1.98 8.22-2.02-8.22h-7.25v16.37zM21.18 24.91h9.5l-9.5 9.48v3.39H37v-3.51h-9.54l9.48-9.47v-3.39H21.18v3.5z" style="fill:#333640"/></svg>